<?xml version="1.0" encoding="UTF-8" standalone="no"?>
<!DOCTYPE svg PUBLIC "-//W3C//DTD SVG 1.1//EN"
 "http://www.w3.org/Graphics/SVG/1.1/DTD/svg11.dtd">
<!-- Generated by graphviz version 5.0.0 (20220707.1540)
 -->
<!-- Title: dependency&#45;cruiser output Pages: 1 -->
<svg width="881pt" height="272pt"
 viewBox="0.00 0.00 881.00 272.00" xmlns="http://www.w3.org/2000/svg" xmlns:xlink="http://www.w3.org/1999/xlink">
<g id="graph0" class="graph" transform="scale(1 1) rotate(0) translate(4 268)">
<title>dependency&#45;cruiser output</title>
<polygon fill="white" stroke="transparent" points="-4,4 -4,-268 877,-268 877,4 -4,4"/>
<g id="clust1" class="cluster">
<title>cluster_src</title>
<path fill="#ffffff" stroke="black" stroke-width="2" d="M20,-8C20,-8 853,-8 853,-8 859,-8 865,-14 865,-20 865,-20 865,-244 865,-244 865,-250 859,-256 853,-256 853,-256 20,-256 20,-256 14,-256 8,-250 8,-244 8,-244 8,-20 8,-20 8,-14 14,-8 20,-8"/>
<text text-anchor="middle" x="436.5" y="-244.8" font-family="Helvetica,sans-Serif" font-weight="bold" font-size="9.00">src</text>
</g>
<g id="clust2" class="cluster">
<title>cluster_src/contexts</title>
<path fill="#ffffff" stroke="black" stroke-width="2" d="M195,-178C195,-178 249,-178 249,-178 255,-178 261,-184 261,-190 261,-190 261,-218 261,-218 261,-224 255,-230 249,-230 249,-230 195,-230 195,-230 189,-230 183,-224 183,-218 183,-218 183,-190 183,-190 183,-184 189,-178 195,-178"/>
<text text-anchor="middle" x="222" y="-218.8" font-family="Helvetica,sans-Serif" font-weight="bold" font-size="9.00">contexts</text>
</g>
<!-- src/App.css -->
<g id="node1" class="node">
<title>src/App.css</title>
<g id="a_node1"><a xlink:href="src/App.css" xlink:title="App.css">
<path fill="#ffffcc" stroke="black" d="M243,-140C243,-140 201,-140 201,-140 198,-140 195,-137 195,-134 195,-134 195,-128 195,-128 195,-125 198,-122 201,-122 201,-122 243,-122 243,-122 246,-122 249,-125 249,-128 249,-128 249,-134 249,-134 249,-137 246,-140 243,-140"/>
<text text-anchor="start" x="205.5" y="-128.8" font-family="Helvetica,sans-Serif" font-size="9.00">App.css</text>
</a>
</g>
</g>
<!-- src/App.tsx -->
<g id="node2" class="node">
<title>src/App.tsx</title>
<g id="a_node2"><a xlink:href="src/App.tsx" xlink:title="App.tsx">
<path fill="#bbfeff" stroke="black" d="M168.5,-170C168.5,-170 126.5,-170 126.5,-170 123.5,-170 120.5,-167 120.5,-164 120.5,-164 120.5,-158 120.5,-158 120.5,-155 123.5,-152 126.5,-152 126.5,-152 168.5,-152 168.5,-152 171.5,-152 174.5,-155 174.5,-158 174.5,-158 174.5,-164 174.5,-164 174.5,-167 171.5,-170 168.5,-170"/>
<text text-anchor="start" x="132" y="-158.8" font-family="Helvetica,sans-Serif" font-size="9.00">App.tsx</text>
</a>
</g>
</g>
<!-- src/App.tsx&#45;&gt;src/App.css -->
<g id="edge1" class="edge">
<title>src/App.tsx&#45;&gt;src/App.css</title>
<path fill="none" stroke="#000000" stroke-width="2" stroke-opacity="0.200000" d="M169.25,-151.84C173.77,-149.89 178.54,-147.85 183,-146 185.8,-144.84 188.73,-143.65 191.66,-142.47"/>
<polygon fill="#000000" fill-opacity="0.200000" stroke="#000000" stroke-width="2" stroke-opacity="0.200000" points="192.85,-144.25 197.64,-140.08 191.29,-140.35 192.85,-144.25"/>
</g>
<!-- src/contexts/settings.tsx -->
<g id="node3" class="node">
<title>src/contexts/settings.tsx</title>
<g id="a_node3"><a xlink:href="src/contexts/settings.tsx" xlink:title="settings.tsx">
<path fill="#bbfeff" stroke="black" d="M247,-204C247,-204 197,-204 197,-204 194,-204 191,-201 191,-198 191,-198 191,-192 191,-192 191,-189 194,-186 197,-186 197,-186 247,-186 247,-186 250,-186 253,-189 253,-192 253,-192 253,-198 253,-198 253,-201 250,-204 247,-204"/>
<text text-anchor="start" x="199" y="-192.8" font-family="Helvetica,sans-Serif" font-size="9.00">settings.tsx</text>
</a>
</g>
</g>
<!-- src/App.tsx&#45;&gt;src/contexts/settings.tsx -->
<g id="edge2" class="edge">
<title>src/App.tsx&#45;&gt;src/contexts/settings.tsx</title>
<path fill="none" stroke="#000000" stroke-width="2" stroke-opacity="0.200000" d="M165.24,-170.04C168.52,-171.93 171.9,-173.97 175,-176 178.72,-178.43 179.07,-179.92 183,-182 183.93,-182.49 184.89,-182.97 185.86,-183.44"/>
<polygon fill="#000000" fill-opacity="0.200000" stroke="#000000" stroke-width="2" stroke-opacity="0.200000" points="185.23,-185.46 191.56,-185.97 186.93,-181.62 185.23,-185.46"/>
</g>
<!-- src/display.tsx -->
<g id="node4" class="node">
<title>src/display.tsx</title>
<g id="a_node4"><a xlink:href="src/display.tsx" xlink:title="display.tsx">
<path fill="#bbfeff" stroke="black" d="M245.5,-170C245.5,-170 198.5,-170 198.5,-170 195.5,-170 192.5,-167 192.5,-164 192.5,-164 192.5,-158 192.5,-158 192.5,-155 195.5,-152 198.5,-152 198.5,-152 245.5,-152 245.5,-152 248.5,-152 251.5,-155 251.5,-158 251.5,-158 251.5,-164 251.5,-164 251.5,-167 248.5,-170 245.5,-170"/>
<text text-anchor="start" x="200.5" y="-158.8" font-family="Helvetica,sans-Serif" font-size="9.00">display.tsx</text>
</a>
</g>
</g>
<!-- src/App.tsx&#45;&gt;src/display.tsx -->
<g id="edge3" class="edge">
<title>src/App.tsx&#45;&gt;src/display.tsx</title>
<path fill="none" stroke="#000000" stroke-width="2" stroke-opacity="0.200000" d="M174.67,-161C178.4,-161 182.28,-161 186.14,-161"/>
<polygon fill="#000000" fill-opacity="0.200000" stroke="#000000" stroke-width="2" stroke-opacity="0.200000" points="186.16,-163.1 192.16,-161 186.16,-158.9 186.16,-163.1"/>
</g>
<!-- src/canvas.tsx -->
<g id="node8" class="node">
<title>src/canvas.tsx</title>
<g id="a_node8"><a xlink:href="src/canvas.tsx" xlink:title="canvas.tsx">
<path fill="#bbfeff" stroke="black" d="M333,-89C333,-89 286,-89 286,-89 283,-89 280,-86 280,-83 280,-83 280,-77 280,-77 280,-74 283,-71 286,-71 286,-71 333,-71 333,-71 336,-71 339,-74 339,-77 339,-77 339,-83 339,-83 339,-86 336,-89 333,-89"/>
<text text-anchor="start" x="288" y="-77.8" font-family="Helvetica,sans-Serif" font-size="9.00">canvas.tsx</text>
</a>
</g>
</g>
<!-- src/display.tsx&#45;&gt;src/canvas.tsx -->
<g id="edge21" class="edge">
<title>src/display.tsx&#45;&gt;src/canvas.tsx</title>
<path fill="none" stroke="#000000" stroke-width="2" stroke-opacity="0.200000" d="M251.6,-153.36C255.14,-151.43 258.41,-149.01 261,-146 271.4,-133.9 260.46,-124.48 269,-111 273.54,-103.84 280.33,-97.65 287,-92.72"/>
<polygon fill="#000000" fill-opacity="0.200000" stroke="#000000" stroke-width="2" stroke-opacity="0.200000" points="288.32,-94.36 292.04,-89.21 285.92,-90.92 288.32,-94.36"/>
</g>
<!-- src/displayprops.ts -->
<g id="node9" class="node">
<title>src/displayprops.ts</title>
<g id="a_node9"><a xlink:href="src/displayprops.ts" xlink:title="displayprops.ts">
<path fill="#ddfeff" stroke="black" d="M435,-202C435,-202 369,-202 369,-202 366,-202 363,-199 363,-196 363,-196 363,-190 363,-190 363,-187 366,-184 369,-184 369,-184 435,-184 435,-184 438,-184 441,-187 441,-190 441,-190 441,-196 441,-196 441,-199 438,-202 435,-202"/>
<text text-anchor="start" x="371" y="-190.8" font-family="Helvetica,sans-Serif" font-size="9.00">displayprops.ts</text>
</a>
</g>
</g>
<!-- src/display.tsx&#45;&gt;src/displayprops.ts -->
<g id="edge24" class="edge">
<title>src/display.tsx&#45;&gt;src/displayprops.ts</title>
<path fill="none" stroke="#000000" stroke-width="2" stroke-opacity="0.200000" d="M251.51,-168.5C254.98,-170.24 258.25,-172.38 261,-175 267.62,-181.33 261.37,-188.93 269,-194 297.34,-212.82 337.2,-209.48 365.68,-203.35"/>
<polygon fill="#000000" fill-opacity="0.200000" stroke="#000000" stroke-width="2" stroke-opacity="0.200000" points="366.2,-205.38 371.58,-202 365.27,-201.29 366.2,-205.38"/>
</g>
<!-- src/motherboard.ts -->
<g id="node13" class="node">
<title>src/motherboard.ts</title>
<g id="a_node13"><a xlink:href="src/motherboard.ts" xlink:title="motherboard.ts">
<path fill="#ddfeff" stroke="black" d="M851,-154C851,-154 785,-154 785,-154 782,-154 779,-151 779,-148 779,-148 779,-142 779,-142 779,-139 782,-136 785,-136 785,-136 851,-136 851,-136 854,-136 857,-139 857,-142 857,-142 857,-148 857,-148 857,-151 854,-154 851,-154"/>
<text text-anchor="start" x="787" y="-142.8" font-family="Helvetica,sans-Serif" font-size="9.00">motherboard.ts</text>
</a>
</g>
</g>
<!-- src/display.tsx&#45;&gt;src/motherboard.ts -->
<g id="edge25" class="edge">
<title>src/display.tsx&#45;&gt;src/motherboard.ts</title>
<path fill="none" stroke="#000000" stroke-width="2" stroke-opacity="0.200000" d="M251.86,-168.15C255.27,-169.95 258.44,-172.19 261,-175 270.3,-185.2 258.86,-195.64 269,-205 312.83,-245.43 341.37,-229 401,-229 401,-229 401,-229 569.5,-229 657.72,-229 690.49,-246.61 766,-201 774.45,-195.9 772.6,-190.51 779,-183 786.18,-174.57 794.86,-165.8 802.12,-158.8"/>
<polygon fill="#000000" fill-opacity="0.200000" stroke="#000000" stroke-width="2" stroke-opacity="0.200000" points="803.98,-159.93 806.87,-154.27 801.08,-156.89 803.98,-159.93"/>
</g>
<!-- src/controlpanel.tsx -->
<g id="node15" class="node">
<title>src/controlpanel.tsx</title>
<g id="a_node15"><a xlink:href="src/controlpanel.tsx" xlink:title="controlpanel.tsx">
<path fill="#bbfeff" stroke="black" d="M344,-188C344,-188 275,-188 275,-188 272,-188 269,-185 269,-182 269,-182 269,-176 269,-176 269,-173 272,-170 275,-170 275,-170 344,-170 344,-170 347,-170 350,-173 350,-176 350,-176 350,-182 350,-182 350,-185 347,-188 344,-188"/>
<text text-anchor="start" x="277" y="-176.8" font-family="Helvetica,sans-Serif" font-size="9.00">controlpanel.tsx</text>
</a>
</g>
</g>
<!-- src/display.tsx&#45;&gt;src/controlpanel.tsx -->
<g id="edge22" class="edge">
<title>src/display.tsx&#45;&gt;src/controlpanel.tsx</title>
<path fill="none" stroke="#000000" stroke-width="2" stroke-opacity="0.200000" d="M251.95,-167.09C255.51,-167.84 259.21,-168.62 262.94,-169.41"/>
<polygon fill="#000000" fill-opacity="0.200000" stroke="#000000" stroke-width="2" stroke-opacity="0.200000" points="262.51,-171.46 268.82,-170.65 263.38,-167.35 262.51,-171.46"/>
</g>
<!-- src/diskdrive.tsx -->
<g id="node18" class="node">
<title>src/diskdrive.tsx</title>
<g id="a_node18"><a xlink:href="src/diskdrive.tsx" xlink:title="diskdrive.tsx">
<path fill="#bbfeff" stroke="black" d="M672,-146C672,-146 617,-146 617,-146 614,-146 611,-143 611,-140 611,-140 611,-134 611,-134 611,-131 614,-128 617,-128 617,-128 672,-128 672,-128 675,-128 678,-131 678,-134 678,-134 678,-140 678,-140 678,-143 675,-146 672,-146"/>
<text text-anchor="start" x="619" y="-134.8" font-family="Helvetica,sans-Serif" font-size="9.00">diskdrive.tsx</text>
</a>
</g>
</g>
<!-- src/display.tsx&#45;&gt;src/diskdrive.tsx -->
<g id="edge23" class="edge">
<title>src/display.tsx&#45;&gt;src/diskdrive.tsx</title>
<path fill="none" stroke="#000000" stroke-width="2" stroke-opacity="0.200000" d="M251.88,-161.08C305.82,-161.01 425.53,-159.89 526,-152 552.35,-149.93 581.85,-146.16 604.71,-142.92"/>
<polygon fill="#000000" fill-opacity="0.200000" stroke="#000000" stroke-width="2" stroke-opacity="0.200000" points="605.03,-144.99 610.67,-142.06 604.43,-140.83 605.03,-144.99"/>
</g>
<!-- src/assembler.ts -->
<g id="node5" class="node">
<title>src/assembler.ts</title>
<g id="a_node5"><a xlink:href="src/assembler.ts" xlink:title="assembler.ts">
<path fill="#ddfeff" stroke="black" d="M337.5,-135C337.5,-135 281.5,-135 281.5,-135 278.5,-135 275.5,-132 275.5,-129 275.5,-129 275.5,-123 275.5,-123 275.5,-120 278.5,-117 281.5,-117 281.5,-117 337.5,-117 337.5,-117 340.5,-117 343.5,-120 343.5,-123 343.5,-123 343.5,-129 343.5,-129 343.5,-132 340.5,-135 337.5,-135"/>
<text text-anchor="start" x="283.5" y="-123.8" font-family="Helvetica,sans-Serif" font-size="9.00">assembler.ts</text>
</a>
</g>
</g>
<!-- src/instructions.ts -->
<g id="node6" class="node">
<title>src/instructions.ts</title>
<g id="a_node6"><a xlink:href="src/instructions.ts" xlink:title="instructions.ts">
<path fill="#ddfeff" stroke="black" d="M520,-146C520,-146 460,-146 460,-146 457,-146 454,-143 454,-140 454,-140 454,-134 454,-134 454,-131 457,-128 460,-128 460,-128 520,-128 520,-128 523,-128 526,-131 526,-134 526,-134 526,-140 526,-140 526,-143 523,-146 520,-146"/>
<text text-anchor="start" x="462" y="-134.8" font-family="Helvetica,sans-Serif" font-size="9.00">instructions.ts</text>
</a>
</g>
</g>
<!-- src/assembler.ts&#45;&gt;src/instructions.ts -->
<g id="edge4" class="edge">
<title>src/assembler.ts&#45;&gt;src/instructions.ts</title>
<path fill="none" stroke="#000000" stroke-width="2" stroke-opacity="0.200000" d="M343.54,-128.62C349.99,-129.1 356.71,-129.59 363,-130 391.32,-131.87 423.23,-133.63 447.86,-134.93"/>
<polygon fill="#000000" fill-opacity="0.200000" stroke="#000000" stroke-width="2" stroke-opacity="0.200000" points="447.85,-137.03 453.96,-135.25 448.07,-132.84 447.85,-137.03"/>
</g>
<!-- src/utility.ts -->
<g id="node7" class="node">
<title>src/utility.ts</title>
<g id="a_node7"><a xlink:href="src/utility.ts" xlink:title="utility.ts">
<path fill="#ddfeff" stroke="black" d="M423,-124C423,-124 381,-124 381,-124 378,-124 375,-121 375,-118 375,-118 375,-112 375,-112 375,-109 378,-106 381,-106 381,-106 423,-106 423,-106 426,-106 429,-109 429,-112 429,-112 429,-118 429,-118 429,-121 426,-124 423,-124"/>
<text text-anchor="start" x="386.5" y="-112.8" font-family="Helvetica,sans-Serif" font-size="9.00">utility.ts</text>
</a>
</g>
</g>
<!-- src/assembler.ts&#45;&gt;src/utility.ts -->
<g id="edge5" class="edge">
<title>src/assembler.ts&#45;&gt;src/utility.ts</title>
<path fill="none" stroke="#000000" stroke-width="2" stroke-opacity="0.200000" d="M343.68,-121.97C351.89,-120.97 360.66,-119.9 368.81,-118.91"/>
<polygon fill="#000000" fill-opacity="0.200000" stroke="#000000" stroke-width="2" stroke-opacity="0.200000" points="369.2,-120.98 374.9,-118.17 368.69,-116.81 369.2,-120.98"/>
</g>
<!-- src/instructions.ts&#45;&gt;src/utility.ts -->
<g id="edge30" class="edge">
<title>src/instructions.ts&#45;&gt;src/utility.ts</title>
<g id="a_edge30"><a xlink:title="no&#45;circular">
<path fill="none" stroke="orange" stroke-width="2" d="M453.97,-132.47C448.28,-131.11 442.4,-129.6 436.74,-128.04"/>
<polygon fill="orange" stroke="orange" stroke-width="2" points="429.73,-123.79 423.38,-124.11 428.54,-127.82 429.73,-123.79"/>
<polyline fill="none" stroke="orange" stroke-width="2" points="429.14,-125.8 432.01,-126.65 "/>
<ellipse fill="none" stroke="orange" stroke-width="2" cx="434.32" cy="-127.32" rx="2.4" ry="2.4"/>
</a>
</g>
<text text-anchor="middle" x="416.34" y="-131.28" font-family="Helvetica,sans-Serif" font-size="9.00" fill="orange">no&#45;circular</text>
</g>
<!-- src/memory.ts -->
<g id="node12" class="node">
<title>src/memory.ts</title>
<g id="a_node12"><a xlink:href="src/memory.ts" xlink:title="memory.ts">
<path fill="#ddfeff" stroke="black" d="M592,-104C592,-104 545,-104 545,-104 542,-104 539,-101 539,-98 539,-98 539,-92 539,-92 539,-89 542,-86 545,-86 545,-86 592,-86 592,-86 595,-86 598,-89 598,-92 598,-92 598,-98 598,-98 598,-101 595,-104 592,-104"/>
<text text-anchor="start" x="547" y="-92.8" font-family="Helvetica,sans-Serif" font-size="9.00">memory.ts</text>
</a>
</g>
</g>
<!-- src/instructions.ts&#45;&gt;src/memory.ts -->
<g id="edge29" class="edge">
<title>src/instructions.ts&#45;&gt;src/memory.ts</title>
<g id="a_edge29"><a xlink:title="no&#45;circular">
<path fill="none" stroke="orange" stroke-width="2" d="M507.6,-127.89C516.72,-122.88 528.29,-116.52 538.83,-110.74"/>
<polygon fill="orange" stroke="orange" stroke-width="2" points="546.68,-108.82 550.93,-104.1 544.66,-105.14 546.68,-108.82"/>
<polyline fill="none" stroke="orange" stroke-width="2" points="545.67,-106.98 543.04,-108.43 "/>
<ellipse fill="none" stroke="orange" stroke-width="2" cx="540.94" cy="-109.58" rx="2.4" ry="2.4"/>
</a>
</g>
<text text-anchor="middle" x="507.26" y="-108.79" font-family="Helvetica,sans-Serif" font-size="9.00" fill="orange">no&#45;circular</text>
</g>
<!-- src/utility.ts&#45;&gt;src/instructions.ts -->
<g id="edge46" class="edge">
<title>src/utility.ts&#45;&gt;src/instructions.ts</title>
<g id="a_edge46"><a xlink:title="no&#45;circular">
<path fill="none" stroke="orange" stroke-width="2" d="M429.27,-117.54C437.53,-119.32 446.77,-121.61 455.47,-124.02"/>
<polygon fill="orange" stroke="orange" stroke-width="2" points="462.55,-128.3 468.89,-127.98 463.73,-124.27 462.55,-128.3"/>
<polyline fill="none" stroke="orange" stroke-width="2" points="463.14,-126.28 460.26,-125.43 "/>
<ellipse fill="none" stroke="orange" stroke-width="2" cx="457.96" cy="-124.76" rx="2.4" ry="2.4"/>
</a>
</g>
<text text-anchor="middle" x="471.29" y="-120.15" font-family="Helvetica,sans-Serif" font-size="9.00" fill="orange">no&#45;circular</text>
</g>
<!-- src/utility.ts&#45;&gt;src/memory.ts -->
<g id="edge47" class="edge">
<title>src/utility.ts&#45;&gt;src/memory.ts</title>
<g id="a_edge47"><a xlink:title="no&#45;circular">
<path fill="none" stroke="orange" stroke-width="2" d="M429.07,-108.44C454.76,-104.08 494.46,-99.05 524.77,-96.19"/>
<polygon fill="orange" stroke="orange" stroke-width="2" points="533,-97.59 538.79,-94.98 532.63,-93.4 533,-97.59"/>
<polyline fill="none" stroke="orange" stroke-width="2" points="532.81,-95.5 529.83,-95.75 "/>
<ellipse fill="none" stroke="orange" stroke-width="2" cx="527.43" cy="-95.96" rx="2.4" ry="2.4"/>
</a>
</g>
<text text-anchor="middle" x="461.95" y="-93.46" font-family="Helvetica,sans-Serif" font-size="9.00" fill="orange">no&#45;circular</text>
</g>
<!-- src/canvas.tsx&#45;&gt;src/utility.ts -->
<g id="edge12" class="edge">
<title>src/canvas.tsx&#45;&gt;src/utility.ts</title>
<path fill="none" stroke="#000000" stroke-width="2" stroke-opacity="0.200000" d="M333.81,-89.01C345.33,-93.47 359.35,-98.89 371.61,-103.63"/>
<polygon fill="#000000" fill-opacity="0.200000" stroke="#000000" stroke-width="2" stroke-opacity="0.200000" points="371.1,-105.69 377.46,-105.9 372.62,-101.77 371.1,-105.69"/>
</g>
<!-- src/canvas.tsx&#45;&gt;src/displayprops.ts -->
<g id="edge6" class="edge">
<title>src/canvas.tsx&#45;&gt;src/displayprops.ts</title>
<path fill="none" stroke="#000000" stroke-width="2" stroke-opacity="0.200000" d="M324.29,-89C332.37,-94.7 342.44,-102.56 350,-111 355.16,-116.75 379.34,-156.75 392.47,-178.69"/>
<polygon fill="#000000" fill-opacity="0.200000" stroke="#000000" stroke-width="2" stroke-opacity="0.200000" points="390.67,-179.77 395.55,-183.84 394.27,-177.61 390.67,-179.77"/>
</g>
<!-- src/joystick.ts -->
<g id="node10" class="node">
<title>src/joystick.ts</title>
<g id="a_node10"><a xlink:href="src/joystick.ts" xlink:title="joystick.ts">
<path fill="#ddfeff" stroke="black" d="M840,-54C840,-54 796,-54 796,-54 793,-54 790,-51 790,-48 790,-48 790,-42 790,-42 790,-39 793,-36 796,-36 796,-36 840,-36 840,-36 843,-36 846,-39 846,-42 846,-42 846,-48 846,-48 846,-51 843,-54 840,-54"/>
<text text-anchor="start" x="798" y="-42.8" font-family="Helvetica,sans-Serif" font-size="9.00">joystick.ts</text>
</a>
</g>
</g>
<!-- src/canvas.tsx&#45;&gt;src/joystick.ts -->
<g id="edge7" class="edge">
<title>src/canvas.tsx&#45;&gt;src/joystick.ts</title>
<path fill="none" stroke="#000000" stroke-width="2" stroke-opacity="0.200000" d="M316.67,-70.72C325.38,-58.51 342.51,-37.49 363,-28 414.01,-4.37 432.79,-17 489,-17 489,-17 489,-17 645.5,-17 694.07,-17 749.37,-28.07 783.73,-36.29"/>
<polygon fill="#000000" fill-opacity="0.200000" stroke="#000000" stroke-width="2" stroke-opacity="0.200000" points="783.57,-38.41 789.9,-37.79 784.56,-34.33 783.57,-38.41"/>
</g>
<!-- src/keyboard.ts -->
<g id="node11" class="node">
<title>src/keyboard.ts</title>
<g id="a_node11"><a xlink:href="src/keyboard.ts" xlink:title="keyboard.ts">
<path fill="#ddfeff" stroke="black" d="M844,-96C844,-96 792,-96 792,-96 789,-96 786,-93 786,-90 786,-90 786,-84 786,-84 786,-81 789,-78 792,-78 792,-78 844,-78 844,-78 847,-78 850,-81 850,-84 850,-84 850,-90 850,-90 850,-93 847,-96 844,-96"/>
<text text-anchor="start" x="794" y="-84.8" font-family="Helvetica,sans-Serif" font-size="9.00">keyboard.ts</text>
</a>
</g>
</g>
<!-- src/canvas.tsx&#45;&gt;src/keyboard.ts -->
<g id="edge8" class="edge">
<title>src/canvas.tsx&#45;&gt;src/keyboard.ts</title>
<path fill="none" stroke="#000000" stroke-width="2" stroke-opacity="0.200000" d="M321.37,-70.81C331.47,-62.83 347.27,-51.68 363,-46 416.04,-26.84 432.6,-31 489,-31 489,-31 489,-31 569.5,-31 649.82,-31 741.26,-59.4 787.25,-75.75"/>
<polygon fill="#000000" fill-opacity="0.200000" stroke="#000000" stroke-width="2" stroke-opacity="0.200000" points="786.81,-77.82 793.17,-77.88 788.23,-73.87 786.81,-77.82"/>
</g>
<!-- src/canvas.tsx&#45;&gt;src/memory.ts -->
<g id="edge9" class="edge">
<title>src/canvas.tsx&#45;&gt;src/memory.ts</title>
<path fill="none" stroke="#000000" stroke-width="2" stroke-opacity="0.200000" d="M339.48,-81.69C387.04,-84.47 481.45,-89.98 532.61,-92.96"/>
<polygon fill="#000000" fill-opacity="0.200000" stroke="#000000" stroke-width="2" stroke-opacity="0.200000" points="532.51,-95.06 538.62,-93.31 532.76,-90.87 532.51,-95.06"/>
</g>
<!-- src/canvas.tsx&#45;&gt;src/motherboard.ts -->
<g id="edge10" class="edge">
<title>src/canvas.tsx&#45;&gt;src/motherboard.ts</title>
<path fill="none" stroke="#000000" stroke-width="2" stroke-opacity="0.200000" d="M339.24,-78.18C374.5,-76.11 436.12,-73 489,-73 489,-73 489,-73 645.5,-73 699.86,-73 717.75,-68.95 766,-94 782.77,-102.71 797.49,-118.87 806.75,-130.67"/>
<polygon fill="#000000" fill-opacity="0.200000" stroke="#000000" stroke-width="2" stroke-opacity="0.200000" points="805.3,-132.24 810.61,-135.75 808.65,-129.7 805.3,-132.24"/>
</g>
<!-- src/softswitches.ts -->
<g id="node14" class="node">
<title>src/softswitches.ts</title>
<g id="a_node14"><a xlink:href="src/softswitches.ts" xlink:title="softswitches.ts">
<path fill="#ddfeff" stroke="black" d="M760,-118C760,-118 697,-118 697,-118 694,-118 691,-115 691,-112 691,-112 691,-106 691,-106 691,-103 694,-100 697,-100 697,-100 760,-100 760,-100 763,-100 766,-103 766,-106 766,-106 766,-112 766,-112 766,-115 763,-118 760,-118"/>
<text text-anchor="start" x="699" y="-106.8" font-family="Helvetica,sans-Serif" font-size="9.00">softswitches.ts</text>
</a>
</g>
</g>
<!-- src/canvas.tsx&#45;&gt;src/softswitches.ts -->
<g id="edge11" class="edge">
<title>src/canvas.tsx&#45;&gt;src/softswitches.ts</title>
<path fill="none" stroke="#000000" stroke-width="2" stroke-opacity="0.200000" d="M338.61,-70.99C373.5,-60.62 435,-45 489,-45 489,-45 489,-45 569.5,-45 623.6,-45 681.01,-77.64 709.41,-96.3"/>
<polygon fill="#000000" fill-opacity="0.200000" stroke="#000000" stroke-width="2" stroke-opacity="0.200000" points="708.54,-98.24 714.69,-99.83 710.87,-94.75 708.54,-98.24"/>
</g>
<!-- src/displayprops.ts&#45;&gt;src/motherboard.ts -->
<g id="edge26" class="edge">
<title>src/displayprops.ts&#45;&gt;src/motherboard.ts</title>
<path fill="none" stroke="#000000" stroke-width="2" stroke-opacity="0.200000" d="M441.2,-195.91C474.52,-198.2 524.18,-201 567.5,-201 567.5,-201 567.5,-201 645.5,-201 699.24,-201 716.68,-212.34 766,-191 774.6,-187.28 791.86,-170.79 803.9,-158.62"/>
<polygon fill="#000000" fill-opacity="0.200000" stroke="#000000" stroke-width="2" stroke-opacity="0.200000" points="805.69,-159.79 808.39,-154.04 802.69,-156.85 805.69,-159.79"/>
</g>
<!-- src/joystick.ts&#45;&gt;src/memory.ts -->
<g id="edge31" class="edge">
<title>src/joystick.ts&#45;&gt;src/memory.ts</title>
<g id="a_edge31"><a xlink:title="no&#45;circular">
<path fill="none" stroke="orange" stroke-width="2" d="M789.82,-50.49C746.9,-59.16 663.11,-76.09 612.13,-86.39"/>
<polygon fill="orange" stroke="orange" stroke-width="2" points="603.84,-85.92 598.38,-89.17 604.67,-90.04 603.84,-85.92"/>
<polyline fill="none" stroke="orange" stroke-width="2" points="604.26,-87.98 607.2,-87.38 "/>
<ellipse fill="none" stroke="orange" stroke-width="2" cx="609.55" cy="-86.91" rx="2.4" ry="2.4"/>
</a>
</g>
<text text-anchor="middle" x="672.02" y="-62.65" font-family="Helvetica,sans-Serif" font-size="9.00" fill="orange">no&#45;circular</text>
</g>
<!-- src/keyboard.ts&#45;&gt;src/memory.ts -->
<g id="edge32" class="edge">
<title>src/keyboard.ts&#45;&gt;src/memory.ts</title>
<g id="a_edge32"><a xlink:title="no&#45;circular">
<path fill="none" stroke="orange" stroke-width="2" d="M785.98,-88C742.14,-89.42 661.9,-92.01 612.38,-93.61"/>
<polygon fill="orange" stroke="orange" stroke-width="2" points="604.3,-91.77 598.38,-94.07 604.44,-95.97 604.3,-91.77"/>
<polyline fill="none" stroke="orange" stroke-width="2" points="604.37,-93.87 607.37,-93.78 "/>
<ellipse fill="none" stroke="orange" stroke-width="2" cx="609.77" cy="-93.7" rx="2.4" ry="2.4"/>
</a>
</g>
<text text-anchor="middle" x="670" y="-83.84" font-family="Helvetica,sans-Serif" font-size="9.00" fill="orange">no&#45;circular</text>
</g>
<!-- src/memory.ts&#45;&gt;src/utility.ts -->
<g id="edge35" class="edge">
<title>src/memory.ts&#45;&gt;src/utility.ts</title>
<g id="a_edge35"><a xlink:title="no&#45;circular">
<path fill="none" stroke="orange" stroke-width="2" d="M538.79,-102C512.3,-106.38 472.71,-111.33 443.11,-114.05"/>
<polygon fill="orange" stroke="orange" stroke-width="2" points="434.87,-112.63 429.07,-115.22 435.22,-116.82 434.87,-112.63"/>
<polyline fill="none" stroke="orange" stroke-width="2" points="435.04,-114.72 438.03,-114.47 "/>
<ellipse fill="none" stroke="orange" stroke-width="2" cx="440.43" cy="-114.27" rx="2.4" ry="2.4"/>
</a>
</g>
<text text-anchor="middle" x="462.17" y="-102.43" font-family="Helvetica,sans-Serif" font-size="9.00" fill="orange">no&#45;circular</text>
</g>
<!-- src/memory.ts&#45;&gt;src/softswitches.ts -->
<g id="edge34" class="edge">
<title>src/memory.ts&#45;&gt;src/softswitches.ts</title>
<g id="a_edge34"><a xlink:title="no&#45;circular">
<path fill="none" stroke="orange" stroke-width="2" d="M598.11,-93.98C620.02,-94.96 650.81,-97.46 676.85,-100.28"/>
<polygon fill="orange" stroke="orange" stroke-width="2" points="684.55,-103.28 690.75,-101.87 685.02,-99.1 684.55,-103.28"/>
<polyline fill="none" stroke="orange" stroke-width="2" points="684.78,-101.19 681.8,-100.85 "/>
<ellipse fill="none" stroke="orange" stroke-width="2" cx="679.42" cy="-100.57" rx="2.4" ry="2.4"/>
</a>
</g>
<text text-anchor="middle" x="622.32" y="-89.94" font-family="Helvetica,sans-Serif" font-size="9.00" fill="orange">no&#45;circular</text>
</g>
<!-- src/memory.ts&#45;&gt;src/diskdrive.tsx -->
<g id="edge33" class="edge">
<title>src/memory.ts&#45;&gt;src/diskdrive.tsx</title>
<g id="a_edge33"><a xlink:title="no&#45;circular">
<path fill="none" stroke="orange" stroke-width="2" d="M585.23,-104.19C592.97,-108.69 602.45,-114.16 611,-119 612.13,-119.64 613.28,-120.29 614.45,-120.94"/>
<polygon fill="orange" stroke="orange" stroke-width="2" points="620.67,-126.82 626.93,-127.9 622.71,-123.15 620.67,-126.82"/>
<polyline fill="none" stroke="orange" stroke-width="2" points="621.69,-124.98 619.07,-123.52 "/>
<ellipse fill="none" stroke="orange" stroke-width="2" cx="616.98" cy="-122.35" rx="2.4" ry="2.4"/>
</a>
</g>
<text text-anchor="middle" x="584.11" y="-109.02" font-family="Helvetica,sans-Serif" font-size="9.00" fill="orange">no&#45;circular</text>
</g>
<!-- src/motherboard.ts&#45;&gt;src/instructions.ts -->
<g id="edge37" class="edge">
<title>src/motherboard.ts&#45;&gt;src/instructions.ts</title>
<g id="a_edge37"><a xlink:title="no&#45;circular">
<path fill="none" stroke="orange" stroke-width="2" d="M778.62,-148.51C737.23,-151.77 669.39,-155.64 611,-152 587.56,-150.54 561.7,-147.49 540,-144.52"/>
<polygon fill="orange" stroke="orange" stroke-width="2" points="532.31,-141.31 526.07,-142.55 531.72,-145.47 532.31,-141.31"/>
<polyline fill="none" stroke="orange" stroke-width="2" points="532.01,-143.39 534.98,-143.81 "/>
<ellipse fill="none" stroke="orange" stroke-width="2" cx="537.36" cy="-144.15" rx="2.4" ry="2.4"/>
</a>
</g>
<text text-anchor="middle" x="630.44" y="-156.22" font-family="Helvetica,sans-Serif" font-size="9.00" fill="orange">no&#45;circular</text>
</g>
<!-- src/motherboard.ts&#45;&gt;src/utility.ts -->
<g id="edge40" class="edge">
<title>src/motherboard.ts&#45;&gt;src/utility.ts</title>
<g id="a_edge40"><a xlink:title="no&#45;circular">
<path fill="none" stroke="orange" stroke-width="2" d="M778.88,-153.98C711.3,-168.13 566.99,-190.27 454,-152 442.46,-148.09 431.31,-140.58 422.39,-133.34"/>
<polygon fill="orange" stroke="orange" stroke-width="2" points="417.68,-126.39 411.79,-124 414.9,-129.54 417.68,-126.39"/>
<polyline fill="none" stroke="orange" stroke-width="2" points="416.29,-127.97 418.54,-129.95 "/>
<ellipse fill="none" stroke="orange" stroke-width="2" cx="420.34" cy="-131.54" rx="2.4" ry="2.4"/>
</a>
</g>
<text text-anchor="middle" x="573.01" y="-166.08" font-family="Helvetica,sans-Serif" font-size="9.00" fill="orange">no&#45;circular</text>
</g>
<!-- src/motherboard.ts&#45;&gt;src/memory.ts -->
<g id="edge38" class="edge">
<title>src/motherboard.ts&#45;&gt;src/memory.ts</title>
<g id="a_edge38"><a xlink:title="no&#45;circular">
<path fill="none" stroke="orange" stroke-width="2" d="M778.86,-138.2C774.52,-137.45 770.17,-136.7 766,-136 732.71,-130.4 724.11,-130.57 691,-124 658.8,-117.61 648.57,-114.23 611.68,-105.19"/>
<polygon fill="orange" stroke="orange" stroke-width="2" points="604.4,-101.27 598.07,-101.9 603.41,-105.35 604.4,-101.27"/>
<polyline fill="none" stroke="orange" stroke-width="2" points="603.9,-103.31 606.82,-104.02 "/>
<ellipse fill="none" stroke="orange" stroke-width="2" cx="609.15" cy="-104.58" rx="2.4" ry="2.4"/>
</a>
</g>
<text text-anchor="middle" x="709.68" y="-126.14" font-family="Helvetica,sans-Serif" font-size="9.00" fill="orange">no&#45;circular</text>
</g>
<!-- src/motherboard.ts&#45;&gt;src/softswitches.ts -->
<g id="edge39" class="edge">
<title>src/motherboard.ts&#45;&gt;src/softswitches.ts</title>
<g id="a_edge39"><a xlink:title="no&#45;circular">
<path fill="none" stroke="orange" stroke-width="2" d="M784.45,-135.97C775.19,-132.39 765.22,-128.23 756.34,-124.23"/>
<polygon fill="orange" stroke="orange" stroke-width="2" points="749.88,-118.86 743.56,-118.19 748.09,-122.65 749.88,-118.86"/>
<polyline fill="none" stroke="orange" stroke-width="2" points="748.98,-120.76 751.7,-122.04 "/>
<ellipse fill="none" stroke="orange" stroke-width="2" cx="753.87" cy="-123.06" rx="2.4" ry="2.4"/>
</a>
</g>
<text text-anchor="middle" x="786.05" y="-127.93" font-family="Helvetica,sans-Serif" font-size="9.00" fill="orange">no&#45;circular</text>
</g>
<!-- src/motherboard.ts&#45;&gt;src/diskdrive.tsx -->
<g id="edge36" class="edge">
<title>src/motherboard.ts&#45;&gt;src/diskdrive.tsx</title>
<g id="a_edge36"><a xlink:title="no&#45;circular">
<path fill="none" stroke="orange" stroke-width="2" d="M778.77,-147.04C753.16,-146.66 719.28,-145.16 692.09,-143.23"/>
<polygon fill="orange" stroke="orange" stroke-width="2" points="684.31,-140.52 678.16,-142.15 683.98,-144.7 684.31,-140.52"/>
<polyline fill="none" stroke="orange" stroke-width="2" points="684.14,-142.61 687.13,-142.84 "/>
<ellipse fill="none" stroke="orange" stroke-width="2" cx="689.53" cy="-143.03" rx="2.4" ry="2.4"/>
</a>
</g>
<text text-anchor="middle" x="706.24" y="-138.16" font-family="Helvetica,sans-Serif" font-size="9.00" fill="orange">no&#45;circular</text>
</g>
<!-- src/softswitches.ts&#45;&gt;src/joystick.ts -->
<g id="edge41" class="edge">
<title>src/softswitches.ts&#45;&gt;src/joystick.ts</title>
<g id="a_edge41"><a xlink:title="no&#45;circular">
<path fill="none" stroke="orange" stroke-width="2" d="M741.64,-99.79C751.63,-92.26 766.17,-81.35 779,-72 783.38,-68.81 788.06,-65.44 792.6,-62.21"/>
<polygon fill="orange" stroke="orange" stroke-width="2" points="800.25,-59.35 803.93,-54.17 797.82,-55.93 800.25,-59.35"/>
<polyline fill="none" stroke="orange" stroke-width="2" points="799.04,-57.64 796.59,-59.38 "/>
<ellipse fill="none" stroke="orange" stroke-width="2" cx="794.63" cy="-60.77" rx="2.4" ry="2.4"/>
</a>
</g>
<text text-anchor="middle" x="750.57" y="-69.51" font-family="Helvetica,sans-Serif" font-size="9.00" fill="orange">no&#45;circular</text>
</g>
<!-- src/softswitches.ts&#45;&gt;src/keyboard.ts -->
<g id="edge42" class="edge">
<title>src/softswitches.ts&#45;&gt;src/keyboard.ts</title>
<g id="a_edge42"><a xlink:title="no&#45;circular">
<path fill="none" stroke="orange" stroke-width="2" d="M765.34,-99.99C767.68,-99.4 770.05,-98.81 772.42,-98.21"/>
<polygon fill="orange" stroke="orange" stroke-width="2" points="780.53,-98.34 785.84,-94.84 779.5,-94.26 780.53,-98.34"/>
<polyline fill="none" stroke="orange" stroke-width="2" points="780.02,-96.3 777.11,-97.03 "/>
<ellipse fill="none" stroke="orange" stroke-width="2" cx="774.78" cy="-97.62" rx="2.4" ry="2.4"/>
</a>
</g>
<text text-anchor="middle" x="750.36" y="-91.02" font-family="Helvetica,sans-Serif" font-size="9.00" fill="orange">no&#45;circular</text>
</g>
<!-- src/softswitches.ts&#45;&gt;src/memory.ts -->
<g id="edge43" class="edge">
<title>src/softswitches.ts&#45;&gt;src/memory.ts</title>
<g id="a_edge43"><a xlink:title="no&#45;circular">
<path fill="none" stroke="orange" stroke-width="2" d="M690.75,-109.61C667.25,-108.31 636.7,-105.66 612.15,-102.83"/>
<polygon fill="orange" stroke="orange" stroke-width="2" points="604.32,-99.75 598.11,-101.1 603.81,-103.91 604.32,-99.75"/>
<polyline fill="none" stroke="orange" stroke-width="2" points="604.07,-101.83 607.04,-102.2 "/>
<ellipse fill="none" stroke="orange" stroke-width="2" cx="609.43" cy="-102.49" rx="2.4" ry="2.4"/>
</a>
</g>
<text text-anchor="middle" x="666.49" y="-98.94" font-family="Helvetica,sans-Serif" font-size="9.00" fill="orange">no&#45;circular</text>
</g>
<!-- src/softswitches.ts&#45;&gt;src/motherboard.ts -->
<g id="edge44" class="edge">
<title>src/softswitches.ts&#45;&gt;src/motherboard.ts</title>
<g id="a_edge44"><a xlink:title="no&#45;circular">
<path fill="none" stroke="orange" stroke-width="2" d="M762.08,-118.04C771.5,-121.69 781.67,-125.93 790.66,-129.99"/>
<polygon fill="orange" stroke="orange" stroke-width="2" points="796.83,-135.24 803.15,-135.91 798.63,-131.45 796.83,-135.24"/>
<polyline fill="none" stroke="orange" stroke-width="2" points="797.73,-133.34 795.02,-132.06 "/>
<ellipse fill="none" stroke="orange" stroke-width="2" cx="792.85" cy="-131.03" rx="2.4" ry="2.4"/>
</a>
</g>
<text text-anchor="middle" x="804.83" y="-119.34" font-family="Helvetica,sans-Serif" font-size="9.00" fill="orange">no&#45;circular</text>
</g>
<!-- src/speaker.ts -->
<g id="node16" class="node">
<title>src/speaker.ts</title>
<g id="a_node16"><a xlink:href="src/speaker.ts" xlink:title="speaker.ts">
<path fill="#ddfeff" stroke="black" d="M841.5,-207C841.5,-207 794.5,-207 794.5,-207 791.5,-207 788.5,-204 788.5,-201 788.5,-201 788.5,-195 788.5,-195 788.5,-192 791.5,-189 794.5,-189 794.5,-189 841.5,-189 841.5,-189 844.5,-189 847.5,-192 847.5,-195 847.5,-195 847.5,-201 847.5,-201 847.5,-204 844.5,-207 841.5,-207"/>
<text text-anchor="start" x="796.5" y="-195.8" font-family="Helvetica,sans-Serif" font-size="9.00">speaker.ts</text>
</a>
</g>
</g>
<!-- src/softswitches.ts&#45;&gt;src/speaker.ts -->
<g id="edge45" class="edge">
<title>src/softswitches.ts&#45;&gt;src/speaker.ts</title>
<path fill="none" stroke="#000000" stroke-width="2" stroke-opacity="0.200000" d="M738.22,-118.07C748.08,-128.3 764.63,-145.41 779,-160 787.13,-168.26 796.32,-177.45 803.62,-184.72"/>
<polygon fill="#000000" fill-opacity="0.200000" stroke="#000000" stroke-width="2" stroke-opacity="0.200000" points="802.17,-186.23 807.9,-188.98 805.13,-183.26 802.17,-186.23"/>
</g>
<!-- src/controlpanel.tsx&#45;&gt;src/utility.ts -->
<g id="edge16" class="edge">
<title>src/controlpanel.tsx&#45;&gt;src/utility.ts</title>
<path fill="none" stroke="#000000" stroke-width="2" stroke-opacity="0.200000" d="M323.47,-169.83C339.06,-158.8 365.32,-140.23 382.9,-127.8"/>
<polygon fill="#000000" fill-opacity="0.200000" stroke="#000000" stroke-width="2" stroke-opacity="0.200000" points="384.37,-129.33 388.06,-124.15 381.95,-125.9 384.37,-129.33"/>
</g>
<!-- src/controlpanel.tsx&#45;&gt;src/displayprops.ts -->
<g id="edge13" class="edge">
<title>src/controlpanel.tsx&#45;&gt;src/displayprops.ts</title>
<path fill="none" stroke="#000000" stroke-width="2" stroke-opacity="0.200000" d="M350.19,-185.14C352.28,-185.46 354.39,-185.79 356.49,-186.12"/>
<polygon fill="#000000" fill-opacity="0.200000" stroke="#000000" stroke-width="2" stroke-opacity="0.200000" points="356.53,-188.25 362.78,-187.09 357.17,-184.09 356.53,-188.25"/>
</g>
<!-- src/controlpanel.tsx&#45;&gt;src/motherboard.ts -->
<g id="edge14" class="edge">
<title>src/controlpanel.tsx&#45;&gt;src/motherboard.ts</title>
<path fill="none" stroke="#000000" stroke-width="2" stroke-opacity="0.200000" d="M350.06,-178.17C354.43,-178.1 358.81,-178.04 363,-178 397.67,-177.67 406.36,-176.77 441,-178 497.33,-180 511.14,-187 567.5,-187 567.5,-187 567.5,-187 645.5,-187 699.86,-187 713.78,-181.11 766,-166 774.5,-163.54 783.51,-160.12 791.56,-156.75"/>
<polygon fill="#000000" fill-opacity="0.200000" stroke="#000000" stroke-width="2" stroke-opacity="0.200000" points="792.81,-158.5 797.5,-154.2 791.16,-154.64 792.81,-158.5"/>
</g>
<!-- src/controlpanel.tsx&#45;&gt;src/speaker.ts -->
<g id="edge15" class="edge">
<title>src/controlpanel.tsx&#45;&gt;src/speaker.ts</title>
<path fill="none" stroke="#000000" stroke-width="2" stroke-opacity="0.200000" d="M323.16,-188.13C333.37,-194.96 348.39,-203.8 363,-208 416.9,-223.5 432.91,-215 489,-215 489,-215 489,-215 569.5,-215 645.55,-215 734.44,-206.91 782.27,-201.89"/>
<polygon fill="#000000" fill-opacity="0.200000" stroke="#000000" stroke-width="2" stroke-opacity="0.200000" points="782.72,-203.96 788.46,-201.24 782.27,-199.78 782.72,-203.96"/>
</g>
<!-- src/custom.d.ts -->
<g id="node17" class="node">
<title>src/custom.d.ts</title>
<g id="a_node17"><a xlink:href="src/custom.d.ts" xlink:title="custom.d.ts">
<path fill="#ccffcc" stroke="black" d="M86.5,-222C86.5,-222 36.5,-222 36.5,-222 33.5,-222 30.5,-219 30.5,-216 30.5,-216 30.5,-210 30.5,-210 30.5,-207 33.5,-204 36.5,-204 36.5,-204 86.5,-204 86.5,-204 89.5,-204 92.5,-207 92.5,-210 92.5,-210 92.5,-216 92.5,-216 92.5,-219 89.5,-222 86.5,-222"/>
<text text-anchor="start" x="38.5" y="-210.8" font-family="Helvetica,sans-Serif" font-size="9.00">custom.d.ts</text>
</a>
</g>
</g>
<!-- src/diskdrive.tsx&#45;&gt;src/instructions.ts -->
<g id="edge17" class="edge">
<title>src/diskdrive.tsx&#45;&gt;src/instructions.ts</title>
<g id="a_edge17"><a xlink:title="no&#45;circular">
<path fill="none" stroke="orange" stroke-width="2" d="M610.93,-137C590.35,-137 563.36,-137 540.2,-137"/>
<polygon fill="orange" stroke="orange" stroke-width="2" points="532.37,-134.9 526.37,-137 532.37,-139.1 532.37,-134.9"/>
<polyline fill="none" stroke="orange" stroke-width="2" points="532.37,-137 535.37,-137 "/>
<ellipse fill="none" stroke="orange" stroke-width="2" cx="537.77" cy="-137" rx="2.4" ry="2.4"/>
</a>
</g>
<text text-anchor="middle" x="546.48" y="-129.8" font-family="Helvetica,sans-Serif" font-size="9.00" fill="orange">no&#45;circular</text>
</g>
<!-- src/diskdrive.tsx&#45;&gt;src/utility.ts -->
<g id="edge20" class="edge">
<title>src/diskdrive.tsx&#45;&gt;src/utility.ts</title>
<g id="a_edge20"><a xlink:title="no&#45;circular">
<path fill="none" stroke="orange" stroke-width="2" d="M610.65,-132.18C587.12,-128.88 554.67,-124.64 526,-122 498.49,-119.46 467.42,-117.7 443.39,-116.58"/>
<polygon fill="orange" stroke="orange" stroke-width="2" points="435.52,-114.13 429.43,-115.97 435.33,-118.33 435.52,-114.13"/>
<polyline fill="none" stroke="orange" stroke-width="2" points="435.43,-116.23 438.42,-116.37 "/>
<ellipse fill="none" stroke="orange" stroke-width="2" cx="440.82" cy="-116.47" rx="2.4" ry="2.4"/>
</a>
</g>
<text text-anchor="middle" x="542.15" y="-119.28" font-family="Helvetica,sans-Serif" font-size="9.00" fill="orange">no&#45;circular</text>
</g>
<!-- src/diskdrive.tsx&#45;&gt;src/motherboard.ts -->
<g id="edge18" class="edge">
<title>src/diskdrive.tsx&#45;&gt;src/motherboard.ts</title>
<g id="a_edge18"><a xlink:title="no&#45;circular">
<path fill="none" stroke="orange" stroke-width="2" d="M678.16,-134.9C702.58,-135.1 736.46,-136.5 764.64,-138.38"/>
<polygon fill="orange" stroke="orange" stroke-width="2" points="772.64,-141.06 778.77,-139.4 772.94,-136.87 772.64,-141.06"/>
<polyline fill="none" stroke="orange" stroke-width="2" points="772.79,-138.97 769.79,-138.75 "/>
<ellipse fill="none" stroke="orange" stroke-width="2" cx="767.4" cy="-138.58" rx="2.4" ry="2.4"/>
</a>
</g>
<text text-anchor="middle" x="750.49" y="-139.17" font-family="Helvetica,sans-Serif" font-size="9.00" fill="orange">no&#45;circular</text>
</g>
<!-- src/diskdrive.tsx&#45;&gt;src/softswitches.ts -->
<g id="edge19" class="edge">
<title>src/diskdrive.tsx&#45;&gt;src/softswitches.ts</title>
<g id="a_edge19"><a xlink:title="no&#45;circular">
<path fill="none" stroke="orange" stroke-width="2" d="M671.9,-127.99C676.97,-126.26 682.38,-124.41 687.76,-122.57"/>
<polygon fill="orange" stroke="orange" stroke-width="2" points="695.87,-122.02 700.87,-118.09 694.51,-118.04 695.87,-122.02"/>
<polyline fill="none" stroke="orange" stroke-width="2" points="695.19,-120.03 692.35,-121 "/>
<ellipse fill="none" stroke="orange" stroke-width="2" cx="690.08" cy="-121.78" rx="2.4" ry="2.4"/>
</a>
</g>
<text text-anchor="middle" x="664.25" y="-115.89" font-family="Helvetica,sans-Serif" font-size="9.00" fill="orange">no&#45;circular</text>
</g>
<!-- src/index.css -->
<g id="node19" class="node">
<title>src/index.css</title>
<g id="a_node19"><a xlink:href="src/index.css" xlink:title="index.css">
<path fill="#ffffcc" stroke="black" d="M169,-200C169,-200 126,-200 126,-200 123,-200 120,-197 120,-194 120,-194 120,-188 120,-188 120,-185 123,-182 126,-182 126,-182 169,-182 169,-182 172,-182 175,-185 175,-188 175,-188 175,-194 175,-194 175,-197 172,-200 169,-200"/>
<text text-anchor="start" x="128" y="-188.8" font-family="Helvetica,sans-Serif" font-size="9.00">index.css</text>
</a>
</g>
</g>
<!-- src/index.js -->
<g id="node20" class="node">
<title>src/index.js</title>
<g id="a_node20"><a xlink:href="src/index.js" xlink:title="index.js">
<path fill="#ffffcc" stroke="black" d="M82.5,-177C82.5,-177 40.5,-177 40.5,-177 37.5,-177 34.5,-174 34.5,-171 34.5,-171 34.5,-165 34.5,-165 34.5,-162 37.5,-159 40.5,-159 40.5,-159 82.5,-159 82.5,-159 85.5,-159 88.5,-162 88.5,-165 88.5,-165 88.5,-171 88.5,-171 88.5,-174 85.5,-177 82.5,-177"/>
<text text-anchor="start" x="45.5" y="-165.8" font-family="Helvetica,sans-Serif" font-size="9.00">index.js</text>
</a>
</g>
</g>
<!-- src/index.js&#45;&gt;src/App.tsx -->
<g id="edge27" class="edge">
<title>src/index.js&#45;&gt;src/App.tsx</title>
<path fill="none" stroke="#000000" stroke-width="2" stroke-opacity="0.200000" d="M88.62,-165.82C96.68,-165.15 105.65,-164.4 114.08,-163.7"/>
<polygon fill="#000000" fill-opacity="0.200000" stroke="#000000" stroke-width="2" stroke-opacity="0.200000" points="114.59,-165.77 120.4,-163.18 114.24,-161.58 114.59,-165.77"/>
</g>
<!-- src/index.js&#45;&gt;src/index.css -->
<g id="edge28" class="edge">
<title>src/index.js&#45;&gt;src/index.css</title>
<path fill="none" stroke="#000000" stroke-width="2" stroke-opacity="0.200000" d="M88.62,-175.15C96.52,-177.32 105.31,-179.72 113.6,-181.99"/>
<polygon fill="#000000" fill-opacity="0.200000" stroke="#000000" stroke-width="2" stroke-opacity="0.200000" points="113.48,-184.14 119.82,-183.69 114.59,-180.08 113.48,-184.14"/>
</g>
<!-- src/reportWebVitals.js -->
<g id="node21" class="node">
<title>src/reportWebVitals.js</title>
<g id="a_node21"><a xlink:href="src/reportWebVitals.js" xlink:title="no&#45;orphans">
<path fill="#ccffcc" stroke="orange" d="M101,-128C101,-128 22,-128 22,-128 19,-128 16,-125 16,-122 16,-122 16,-116 16,-116 16,-113 19,-110 22,-110 22,-110 101,-110 101,-110 104,-110 107,-113 107,-116 107,-116 107,-122 107,-122 107,-125 104,-128 101,-128"/>
<text text-anchor="start" x="24" y="-116.8" font-family="Helvetica,sans-Serif" font-size="9.00" fill="orange">reportWebVitals.js</text>
</a>
</g>
</g>
<!-- src/setupTests.js -->
<g id="node22" class="node">
<title>src/setupTests.js</title>
<g id="a_node22"><a xlink:href="src/setupTests.js" xlink:title="no&#45;orphans">
<path fill="#ccffcc" stroke="orange" d="M90,-60C90,-60 33,-60 33,-60 30,-60 27,-57 27,-54 27,-54 27,-48 27,-48 27,-45 30,-42 33,-42 33,-42 90,-42 90,-42 93,-42 96,-45 96,-48 96,-48 96,-54 96,-54 96,-57 93,-60 90,-60"/>
<text text-anchor="start" x="35" y="-48.8" font-family="Helvetica,sans-Serif" font-size="9.00" fill="orange">setupTests.js</text>
</a>
</g>
</g>
</g>
</svg>
