<svg version="1.1" id="Layer_1" xmlns="http://www.w3.org/2000/svg" xmlns:xlink="http://www.w3.org/1999/xlink" x="0px" y="0px"
	 viewBox="0 0 15.6 15.6" style="enable-background:new 0 0 15.6 15.6;" xml:space="preserve">
<path d="M5.8,4.2c-0.9,0-1.6,0.7-1.6,1.6v8.1c0,0.9,0.7,1.6,1.6,1.6h8.1c0.9,0,1.6-0.7,1.6-1.6V7.8c0-0.4-0.2-0.8-0.5-1.2l-2-2
	c-0.3-0.3-0.7-0.5-1.2-0.5H5.8z M5.8,6.6c0-0.4,0.4-0.8,0.8-0.8h4.9c0.4,0,0.8,0.4,0.8,0.8v1.6c0,0.4-0.4,0.8-0.8,0.8H6.6
	c-0.4,0-0.8-0.4-0.8-0.8V6.6z M9.9,10.7c0.9,0,1.6,0.7,1.6,1.6s-0.7,1.6-1.6,1.6c-0.9,0-1.6-0.7-1.6-1.6S9,10.7,9.9,10.7z"/>
<line style="fill:none;" x1="13.3" y1="1.5" x2="3.2" y2="1.5"/>
<path style="fill:none;stroke:#231F20;stroke-width:1.5;stroke-linecap:round;stroke-miterlimit:1;" d="M10.2,2.8H4
	c-0.6,0-1.1,0.5-1.1,1.1v6.2"/>
<path style="fill:none;stroke:#231F20;stroke-width:1.5;stroke-linecap:round;stroke-miterlimit:1;" d="M8.1,0.8H1.9
	c-0.6,0-1.1,0.5-1.1,1.1v6.2"/>
</svg>
