<svg width="110" height="131">
  <path fill="none" stroke="#000" stroke-width="5" d="M28.70919 28.62966c3.51558.00009 7.75777.72666 12.72656 2.17969 5.01557 1.45321 8.34369 2.17977 9.98438 2.17969 2.10931.00008 5.55462-.82023 10.335927-2.46094 4.78118-1.64053 8.92961-2.46085 12.44532-2.46094 5.76553.00009 10.89834 1.54697 15.39843 4.64063 2.53115 1.78133 5.03896 4.19539 7.523437 7.24219-3.750097 3.187571-6.492277 6.02353-8.226557 8.50783-3.14072 4.50006-4.71103 9.46881-4.71094 14.90625-.00009 5.95317 1.66397 11.32036 4.99219 16.10156 3.32802 4.78129 7.124887 7.80472 11.390613 9.07031-1.781346 5.76565-4.734466 11.78908-8.859363 18.07032-6.23447 9.42187-12.42196 14.13281-18.5625 14.13281-2.43758 0-5.81258-.77344-10.125-2.32031-4.26569-1.54688-7.875057-2.32031-10.828127-2.32032-2.95318.00001-6.39849.79688-10.33593 2.39063-3.89067 1.64062-7.05473 2.46093-9.49219 2.46094-7.35941-.00001-14.57815-6.23437-21.65625-18.70313C3.63105 89.91878.09199 77.82504.092 65.96562.09199 54.95006 2.7873 45.97351 8.1779402 39.03591 13.61542 32.0985 20.45916 28.62975 28.70919 28.62966M73.006057.92654c.18742.60949.30461 1.14855.35157 1.61719.04679.46886.07023.93761.07031 1.40625-.00008 3.00011-.70321 6.28135-2.10938 9.84375-1.40632 3.5626-3.63288 6.86728-6.67968 9.91406-2.62507 2.57822-5.22663 4.31259-7.804687 5.20312-1.64069.51572-4.12506.91416-7.45313 1.19532.0937-7.12491 1.94526-13.28896 5.55469-18.49219 3.656177-5.20301 9.679617-8.76551 18.070307-10.6875" font-family="Helvetica" font-size="144" font-weight="400" style="text-align:start;line-height:100%" transform="translate(4.851852 4.505291)"/>
</svg>